# xmcd
#
# Track frame offsets:
#	150
#	14166
#	32945
#	56058
#	77441
#	96271
#	98798
#	117479
#	133781
#	151653
#	171188
#	193337
#	212747
#
# Disc length: 3051
#
# Revision: 1
# Processed by: cddbd v1.5.1PL0 Copyright (c) Steve Scherf et al.
# Submitted via: VisiTrax 2.9.5.181 - For more info visit www.synapsa.com
# Normalized: r0:TRMNUM
#
DISCID=b60be90d
DTITLE=Diana King - TRhink Like A Girl
DYEAR=2003
DGENRE=Misc
TTITLE0=think like a girl
TTITLE1=l-l - lies
TTITLE2=do_you_really_want_to_hurt_me
TTITLE3=love_yourself
TTITLE4=find_my_way_back
TTITLE5=mi_coffee
TTITLE6=sweeter
TTITLE7=i_say_a_little_prayer
TTITLE8=supa_lova_boy
TTITLE9=tenderness
TTITLE10=new_galfriend
TTITLE11=wicked
TTITLE12=still
EXTD=
EXTT0=
EXTT1=
EXTT2=
EXTT3=
EXTT4=
EXTT5=
EXTT6=
EXTT7=
EXTT8=
EXTT9=
EXTT10=
EXTT11=
EXTT12=
PLAYORDER=
